<svg id="Icons" xmlns="http://www.w3.org/2000/svg" viewBox="0 0 512 512"><defs><style>.cls-1{fill:#29a3fb;}.cls-2{fill:#0989d8;}.cls-3{fill:#f4e6f4;}.cls-4{fill:#e52e44;}.cls-5{fill:#bd9ad8;}.cls-6{fill:#f9f2f9;}.cls-7{fill:#fa4654;}.cls-8{fill:#83d5ef;}.cls-9{fill:#decee5;}.cls-10{fill:#efb732;}.cls-11{fill:#fff;}.cls-12{fill:#334353;}.cls-13{fill:#3e4e60;}.cls-14{fill:#c2aacf;}</style></defs><title>50-Virus-Icons</title><path class="cls-1" d="M512,256c0,141.38-114.62,256-256,256C127.54,512,21.16,417.36,2.81,294A257.45,257.45,0,0,1,0,256C0,114.62,114.62,0,256,0,392.45,0,504,106.76,511.58,241.3,511.86,246.16,512,251.07,512,256Z"/><path class="cls-2" d="M512,256c0,141.38-114.62,256-256,256C127.54,512,21.16,417.36,2.81,294c1.51-.54,3-1.15,4.49-1.81,9.93-4.45,18.6-11.41,28.69-15.47a55.81,55.81,0,0,1,42.66.63C91.59,283,102.84,293.78,117,294.6c11.66.68,22.71-5.84,30.87-14.19S162,261.87,169,252.6c9.77-12.78,22.07-24.11,37-30s32.87-5.77,46.41,2.92c12.62,8.11,19.87,22.15,29.59,33.56,13.82,16.23,35.65,27.79,56.36,22.66,16.74-4.15,31.1-18.54,48.27-16.89s28.53,18.62,43.83,26.83c20.13,10.8,48,3.63,60.43-15.53,7.22-11.18,11.41-26.86,20.61-34.83C511.86,246.16,512,251.07,512,256Z"/><path class="cls-3" d="M63.64,148H343.13a0,0,0,0,1,0,0V306.94a10.59,10.59,0,0,1-10.59,10.59H74.23a10.59,10.59,0,0,1-10.59-10.59V148a0,0,0,0,1,0,0Z" transform="translate(406.77 465.55) rotate(-180)"/><rect class="cls-4" x="63.64" y="276.73" width="279.49" height="24.1"/><path class="cls-5" d="M63.64,317.51V327.9a8.78,8.78,0,0,0,8.79,8.79H453.35a8.78,8.78,0,0,0,8.79-8.79v-2.45a7.21,7.21,0,0,0-.49-2.68,7.89,7.89,0,0,0-7.42-5.26Z"/><rect class="cls-6" x="124.43" y="157.84" width="200.92" height="13.74" rx="6.87" transform="translate(449.79 329.41) rotate(180)"/><rect class="cls-6" x="80.71" y="157.84" width="35.13" height="13.74" rx="6.87" transform="translate(196.54 329.41) rotate(-180)"/><path class="cls-4" d="M220.23,214.27a8.89,8.89,0,0,1-8.89-8.89v-21a8,8,0,1,0-15.91,0v21a8.89,8.89,0,0,1-8.89,8.89h-21a8,8,0,0,0,0,15.91h21a8.89,8.89,0,0,1,8.89,8.88v21.05a8,8,0,1,0,15.91,0V239.06a8.89,8.89,0,0,1,8.89-8.88h21.05a8,8,0,0,0,0-15.91Z"/><ellipse class="cls-7" cx="205.74" cy="193.04" rx="3.98" ry="12.05"/><ellipse class="cls-7" cx="205.74" cy="216.06" rx="2.5" ry="7.58"/><path class="cls-5" d="M236.36,127.65h68.12a9.8,9.8,0,0,1,9.8,9.8V148a0,0,0,0,1,0,0H226.56a0,0,0,0,1,0,0V137.45A9.8,9.8,0,0,1,236.36,127.65Z"/><path class="cls-4" d="M270.42,95.7h0a16,16,0,0,1,16,16v16a0,0,0,0,1,0,0H254.45a0,0,0,0,1,0,0v-16a16,16,0,0,1,16-16Z"/><path class="cls-6" d="M343.13,317.52V177.14a8.33,8.33,0,0,1,8.33-8.33H425a9.83,9.83,0,0,1,9.61,7.72L448.42,239a22.52,22.52,0,0,0,7.07,10.34h0a18.37,18.37,0,0,1,6.65,14.14v46.71a7.3,7.3,0,0,1-7.3,7.3Z"/><path class="cls-8" d="M416.68,240.25l-12.17-57.32a4.94,4.94,0,0,0-4.84-3.92h-40A4.94,4.94,0,0,0,354.7,184v57.32a4.94,4.94,0,0,0,4.95,4.95h52.19A5,5,0,0,0,416.68,240.25Z"/><rect class="cls-9" x="355.04" y="260.04" width="21.39" height="10.27" rx="5.13" transform="translate(731.47 530.35) rotate(180)"/><path class="cls-8" d="M460.84,256.8h-6.43a18.39,18.39,0,0,1-17.73-13.52l-16.48-59.9a3.46,3.46,0,0,1,3.34-4.37h11.65l13.42,60.59a21.61,21.61,0,0,0,6.89,9.78A18.34,18.34,0,0,1,460.84,256.8Z"/><rect class="cls-7" x="343.13" y="276.73" width="119.01" height="24.1" transform="translate(805.27 577.57) rotate(180)"/><path class="cls-10" d="M445.1,266h10.53a10.74,10.74,0,0,1,10.74,10.74v0a10.74,10.74,0,0,1-10.74,10.74H445.1a2.41,2.41,0,0,1-2.41-2.41V268.4A2.41,2.41,0,0,1,445.1,266Z" transform="translate(909.06 553.47) rotate(180)"/><ellipse class="cls-11" cx="417.2" cy="195.64" rx="3.46" ry="14.17" transform="translate(-33.44 99.46) rotate(-13.08)"/><ellipse class="cls-11" cx="423.89" cy="224.42" rx="2.04" ry="12.57" transform="translate(-39.78 101.71) rotate(-13.08)"/><ellipse class="cls-11" cx="391.94" cy="254.25" rx="3.91" ry="13.53" transform="translate(132.23 642.58) rotate(-89.2)"/><circle class="cls-12" cx="379.61" cy="352.03" r="42.9"/><path class="cls-13" d="M336.7,352a42.91,42.91,0,0,0,36.8,42.47,42.9,42.9,0,0,0,0-84.93A42.92,42.92,0,0,0,336.7,352Z"/><circle class="cls-9" cx="379.61" cy="352.03" r="24.22"/><circle class="cls-14" cx="379.61" cy="352.03" r="10.45"/><circle class="cls-12" cx="379.61" cy="352.03" r="3.65"/><circle class="cls-12" cx="397.13" cy="352.03" r="3.65"/><circle class="cls-12" cx="379.61" cy="334.7" r="3.65"/><circle class="cls-12" cx="379.61" cy="369.37" r="3.65"/><circle class="cls-12" cx="362.09" cy="352.03" r="3.65"/><circle class="cls-12" cx="148.65" cy="352.03" r="42.9"/><path class="cls-13" d="M105.74,352a42.91,42.91,0,0,0,36.8,42.47,42.9,42.9,0,0,0,0-84.93A42.93,42.93,0,0,0,105.74,352Z"/><circle class="cls-9" cx="148.65" cy="352.03" r="24.22"/><circle class="cls-14" cx="148.65" cy="352.03" r="10.45"/><circle class="cls-12" cx="148.65" cy="352.03" r="3.65"/><circle class="cls-12" cx="166.17" cy="352.03" r="3.65"/><circle class="cls-12" cx="148.65" cy="334.7" r="3.65"/><circle class="cls-12" cx="148.65" cy="369.37" r="3.65"/><circle class="cls-12" cx="131.13" cy="352.03" r="3.65"/></svg>