<?xml version="1.0" encoding="utf-8"?>
<!-- Generator: Adobe Illustrator 22.1.0, SVG Export Plug-In . SVG Version: 6.00 Build 0)  -->
<svg version="1.1" id="Icon_Set" xmlns="http://www.w3.org/2000/svg" xmlns:xlink="http://www.w3.org/1999/xlink" x="0px" y="0px"
	 viewBox="0 0 512 512" style="enable-background:new 0 0 512 512;" xml:space="preserve">
<style type="text/css">
	.st0{fill:#F0C48A;}
	.st1{fill:#FD919E;}
	.st2{fill:#4C4372;}
	.st3{fill:#D3E6F8;}
	.st4{fill:#A4CFF2;}
	.st5{fill:#7BABF1;}
	.st6{fill:#FFFFFF;}
	.st7{fill:#E8677D;}
	.st8{fill:none;stroke:#4C4372;stroke-width:12;stroke-linecap:round;stroke-linejoin:round;stroke-miterlimit:10;}
</style>
<g id="Chemotheraphy">
	<g>
		<g>
			<circle class="st0" cx="256" cy="256" r="207"/>
		</g>
	</g>
	<g>
		<g>
			<g>
				<g>
					<path class="st1" d="M268.316,219.785h-17.538c-6.429,0-11.641-5.212-11.641-11.641v-33.866
						c0-6.429,5.212-11.641,11.641-11.641h17.538c6.429,0,11.641,5.212,11.641,11.641v33.866
						C279.957,214.573,274.745,219.785,268.316,219.785z"/>
				</g>
				<g>
					<path class="st1" d="M348.875,219.785h-17.538c-6.429,0-11.641-5.212-11.641-11.641v-33.866
						c0-6.429,5.212-11.641,11.641-11.641h17.538c6.429,0,11.641,5.212,11.641,11.641v33.866
						C360.516,214.573,355.304,219.785,348.875,219.785z"/>
				</g>
			</g>
			<g>
				<g>
					<path class="st2" d="M268.315,225.785h-17.537c-9.728,0-17.642-7.914-17.642-17.642v-33.866
						c0-9.728,7.914-17.642,17.642-17.642h17.537c9.728,0,17.642,7.914,17.642,17.642v33.866
						C285.957,217.871,278.043,225.785,268.315,225.785z M250.778,168.636c-3.11,0-5.642,2.531-5.642,5.642v33.866
						c0,3.11,2.531,5.642,5.642,5.642h17.537c3.11,0,5.642-2.531,5.642-5.642v-33.866c0-3.11-2.531-5.642-5.642-5.642H250.778z"/>
				</g>
				<g>
					<path class="st2" d="M348.875,225.785h-17.538c-9.728,0-17.642-7.914-17.642-17.642v-33.866
						c0-9.728,7.914-17.642,17.642-17.642h17.538c9.728,0,17.641,7.914,17.641,17.642v33.866
						C366.516,217.871,358.603,225.785,348.875,225.785z M331.337,168.636c-3.11,0-5.642,2.531-5.642,5.642v33.866
						c0,3.11,2.531,5.642,5.642,5.642h17.538c3.11,0,5.641-2.531,5.641-5.642v-33.866c0-3.11-2.53-5.642-5.641-5.642H331.337z"/>
				</g>
			</g>
			<g>
				<g>
					<path class="st2" d="M340.024,168.636c-3.313,0-6-2.687-6-6v-21.554h-68.396v21.554c0,3.313-2.687,6-6,6s-6-2.687-6-6v-27.554
						c0-3.313,2.687-6,6-6h80.396c3.313,0,6,2.687,6,6v27.554C346.024,165.949,343.338,168.636,340.024,168.636z"/>
				</g>
				<g>
					<path class="st2" d="M299.826,382.918c-3.313,0-6-2.687-6-6V135.082c0-3.313,2.687-6,6-6s6,2.687,6,6v241.836
						C305.826,380.231,303.14,382.918,299.826,382.918z"/>
				</g>
				<g>
					<path class="st2" d="M323.195,382.918h-46.738c-3.313,0-6-2.687-6-6s2.687-6,6-6h46.738c3.313,0,6,2.687,6,6
						S326.509,382.918,323.195,382.918z"/>
				</g>
			</g>
		</g>
		<g>
			<g>
				<path class="st7" d="M342.013,276.203H226.625c-8.777,0-15.893-7.115-15.893-15.893v0c0-8.777,7.115-15.893,15.893-15.893
					h115.388c8.777,0,15.893,7.115,15.893,15.893v0C357.906,269.088,350.79,276.203,342.013,276.203z"/>
			</g>
			<g>
				<path class="st1" d="M268.426,244.418h-41.801c-8.777,0-15.893,7.115-15.893,15.893v0c0,8.777,7.115,15.893,15.893,15.893
					h41.801c8.777,0,15.893-7.115,15.893-15.893v0C284.319,251.533,277.204,244.418,268.426,244.418z"/>
			</g>
			<g>
				<path class="st6" d="M190.007,276.203h-15.188c-11.446,0-20.725-9.279-20.725-20.725v0c0-11.446,9.279-20.725,20.725-20.725
					h15.188c11.446,0,20.725,9.279,20.725,20.725v0C210.732,266.924,201.453,276.203,190.007,276.203z"/>
			</g>
			<g>
				<path class="st2" d="M190.008,282.203h-15.188c-14.736,0-26.725-11.988-26.725-26.725s11.988-26.726,26.725-26.726h15.188
					c14.736,0,26.725,11.989,26.725,26.726S204.744,282.203,190.008,282.203z M174.819,240.753c-8.119,0-14.725,6.605-14.725,14.726
					c0,8.119,6.605,14.725,14.725,14.725h15.188c8.119,0,14.725-6.605,14.725-14.725c0-8.12-6.605-14.726-14.725-14.726H174.819z"/>
			</g>
			<g>
				<path class="st2" d="M342.013,282.203H226.625c-12.071,0-21.893-9.821-21.893-21.893s9.821-21.893,21.893-21.893h115.388
					c12.071,0,21.893,9.821,21.893,21.893S354.084,282.203,342.013,282.203z M226.625,250.418c-5.455,0-9.893,4.438-9.893,9.893
					s4.438,9.893,9.893,9.893h115.388c5.455,0,9.893-4.438,9.893-9.893s-4.438-9.893-9.893-9.893H226.625z"/>
			</g>
			<g>
				<path class="st2" d="M268.427,282.203h-41.802c-12.071,0-21.893-9.821-21.893-21.893s9.821-21.893,21.893-21.893h41.802
					c12.071,0,21.893,9.821,21.893,21.893S280.498,282.203,268.427,282.203z M226.625,250.418c-5.455,0-9.893,4.438-9.893,9.893
					s4.438,9.893,9.893,9.893h41.802c5.455,0,9.893-4.438,9.893-9.893s-4.438-9.893-9.893-9.893H226.625z"/>
			</g>
		</g>
		<g>
			<rect x="154.094" y="276.203" class="st3" width="203.811" height="68.514"/>
		</g>
		<g>
			<rect x="154.094" y="320.801" class="st5" width="203.811" height="23.916"/>
		</g>
		<g>
			<rect x="111.697" y="193.383" class="st5" width="42.398" height="183.534"/>
		</g>
		<g>
			<rect x="357.906" y="276.203" class="st5" width="42.398" height="100.715"/>
		</g>
		<g>
			<path class="st2" d="M154.095,382.918h-42.397c-3.313,0-6-2.687-6-6V193.384c0-3.313,2.687-6,6-6h42.397c3.313,0,6,2.687,6,6
				v183.534C160.095,380.231,157.408,382.918,154.095,382.918z M117.697,370.918h30.397V199.384h-30.397V370.918z"/>
		</g>
		<g>
			<path class="st2" d="M400.303,382.918h-42.397c-3.313,0-6-2.687-6-6V276.203c0-3.313,2.687-6,6-6h42.397c3.313,0,6,2.687,6,6
				v100.715C406.303,380.231,403.616,382.918,400.303,382.918z M363.905,370.918h30.397v-88.715h-30.397V370.918z"/>
		</g>
		<g>
			<path class="st2" d="M357.905,350.717H154.095c-3.313,0-6-2.687-6-6v-68.514c0-3.313,2.687-6,6-6h203.811c3.313,0,6,2.687,6,6
				v68.514C363.905,348.03,361.219,350.717,357.905,350.717z M160.095,338.717h191.811v-56.514H160.095V338.717z"/>
		</g>
		<g>
			<path class="st2" d="M357.905,350.717H154.095c-3.313,0-6-2.687-6-6v-23.915c0-3.313,2.687-6,6-6h203.811c3.313,0,6,2.687,6,6
				v23.915C363.905,348.03,361.219,350.717,357.905,350.717z M160.095,338.717h191.811v-11.915H160.095V338.717z"/>
		</g>
	</g>
</g>
</svg>
