<?xml version="1.0" encoding="iso-8859-1"?>
<!-- Uploaded to: SVG Repo, www.svgrepo.com, Generator: SVG Repo Mixer Tools -->
<svg height="800px" width="800px" version="1.1" id="Layer_1" xmlns="http://www.w3.org/2000/svg" xmlns:xlink="http://www.w3.org/1999/xlink" 
	 viewBox="0 0 512 512" xml:space="preserve">
<path style="fill:#F95428;" d="M360.391,22.191C328.516,7.924,293.184,0,256,0C114.606,0,0,114.606,0,256
	c0,91.833,48.344,172.376,120.989,217.548C160.18,497.927,206.452,512,256,512c141.381,0,256-114.606,256-256
	C512,151.79,449.738,62.132,360.391,22.191z"/>
<path style="fill:#F2F2F2;" d="M466.504,256c0,114.671-91.664,207.915-205.701,210.466c-1.592,0.039-3.198,0.052-4.803,0.052
	c-26.71,0-52.267-4.972-75.778-14.06c-11.989-4.635-23.46-10.319-34.271-16.973C85.67,398.468,45.457,331.947,45.457,256
	c0-116.264,94.267-210.517,210.543-210.517c28.794,0,56.229,5.774,81.216,16.248c13.776,5.761,26.8,12.947,38.906,21.375
	c9.024,6.279,17.517,13.245,25.428,20.832C441.569,142.235,466.504,196.211,466.504,256z"/>
<path style="fill:#E6E6E6;" d="M225.536,452.457c-11.989-4.635-23.46-10.319-34.271-16.973
	C130.984,398.468,90.771,331.947,90.771,256c0-108.608,82.264-197.998,187.884-209.3c-7.443-0.796-14.999-1.217-22.655-1.217
	C139.723,45.483,45.457,139.736,45.457,256c0,75.947,40.213,142.468,100.494,179.484c10.811,6.655,22.282,12.338,34.271,16.973
	c23.512,9.089,49.069,14.06,75.778,14.06c1.605,0,3.211-0.013,4.803-0.052c6.019-0.135,11.971-0.537,17.855-1.167
	C260.128,463.316,242.309,458.941,225.536,452.457z"/>
<g>
	<path style="fill:#35D8B9;" d="M255.99,97.059c-5.364,0-9.71-4.348-9.71-9.71V45.485c0-5.363,4.346-9.71,9.71-9.71
		s9.71,4.348,9.71,9.71v41.864C265.7,92.712,261.354,97.059,255.99,97.059z"/>
	<path style="fill:#35D8B9;" d="M255.99,476.231c-5.364,0-9.71-4.348-9.71-9.71v-41.864c0-5.363,4.346-9.71,9.71-9.71
		s9.71,4.348,9.71,9.71v41.864C265.7,471.884,261.354,476.231,255.99,476.231z"/>
	<path style="fill:#35D8B9;" d="M466.508,265.713h-41.864c-5.364,0-9.71-4.348-9.71-9.71c0-5.363,4.346-9.71,9.71-9.71h41.864
		c5.364,0,9.71,4.348,9.71,9.71C476.219,261.365,471.871,265.713,466.508,265.713z"/>
	<path style="fill:#35D8B9;" d="M87.336,265.713H45.472c-5.364,0-9.71-4.348-9.71-9.71c0-5.363,4.346-9.71,9.71-9.71h41.864
		c5.364,0,9.71,4.348,9.71,9.71C97.046,261.365,92.699,265.713,87.336,265.713z"/>
	<path style="fill:#35D8B9;" d="M255.99,260.534c-5.364,0-9.71,0.831-9.71-4.531v-87.941c0-5.363,4.346-9.71,9.71-9.71
		s9.71,4.348,9.71,9.71v87.941C265.7,261.367,261.354,260.534,255.99,260.534z"/>
</g>
<path style="fill:#F95428;" d="M310.851,265.713H255.99c-5.364,0-9.71-4.348-9.71-9.71c0-5.363,4.346-9.71,9.71-9.71h54.861
	c5.364,0,9.71,4.348,9.71,9.71C320.561,261.365,316.215,265.713,310.851,265.713z"/>
<g>
	<path style="fill:#E54728;" d="M256,476.228c-121.449,0-220.253-98.794-220.253-220.228S134.551,35.772,256,35.772
		c121.427,0,220.215,98.794,220.215,220.228S377.427,476.228,256,476.228z M256,55.193C145.261,55.193,55.167,145.275,55.167,256
		S145.261,456.807,256,456.807c110.718,0,200.794-90.082,200.794-200.807S366.718,55.193,256,55.193z"/>
	<path style="fill:#E54728;" d="M282.847,256c0,14.634-11.698,26.532-26.25,26.858c-0.203,0.005-0.408,0.006-0.612,0.006
		c-3.409,0-6.67-0.634-9.67-1.794c-1.53-0.592-2.993-1.317-4.373-2.166c-7.693-4.723-12.824-13.212-12.824-22.904
		c0-14.837,12.03-26.865,26.868-26.865c3.674,0,7.175,0.737,10.364,2.074c1.758,0.735,3.421,1.652,4.965,2.728
		c1.151,0.801,2.236,1.69,3.245,2.658C279.664,241.483,282.847,248.37,282.847,256z"/>
</g>
<g>
	<path style="fill:#35D8B9;" d="M268.604,256c0,6.876-5.496,12.467-12.335,12.621c-0.096,0.003-0.192,0.003-0.287,0.003
		c-1.602,0-3.134-0.298-4.544-0.843c-0.719-0.278-1.407-0.619-2.055-1.018c-3.615-2.219-6.026-6.208-6.026-10.763
		c0-6.972,5.653-12.623,12.625-12.623c1.727,0,3.371,0.346,4.869,0.975c0.826,0.346,1.607,0.777,2.333,1.282
		c0.541,0.377,1.05,0.794,1.525,1.249C267.108,249.178,268.604,252.415,268.604,256z"/>
	<circle style="fill:#35D8B9;" cx="402.055" cy="340.336" r="9.71"/>
	<circle style="fill:#35D8B9;" cx="402.055" cy="171.677" r="9.71"/>
	<circle style="fill:#35D8B9;" cx="340.323" cy="109.945" r="9.71"/>
	<circle style="fill:#35D8B9;" cx="171.664" cy="109.945" r="9.71"/>
	<circle style="fill:#35D8B9;" cx="109.933" cy="171.677" r="9.71"/>
	<circle style="fill:#35D8B9;" cx="109.933" cy="340.336" r="9.71"/>
	<circle style="fill:#35D8B9;" cx="171.664" cy="402.067" r="9.71"/>
	<circle style="fill:#35D8B9;" cx="340.323" cy="402.067" r="9.71"/>
</g>
</svg>